<svg version="1.1" xmlns="http://www.w3.org/2000/svg" style="display: block;" viewBox="0 0 2048 2048" width="2048" height="2048" preserveAspectRatio="none">
<path transform="translate(0,0)" fill="rgb(245,235,216)" d="M 0 0 L 2048 0 L 2048 2048 L 0 2048 L 0 0 z"/>
<path transform="translate(0,0)" fill="rgb(18,17,16)" d="M 346.083 1422.95 L 346.28 1355.7 C 346.3 1344.82 346.759 1328.48 345.343 1318.04 C 344.795 1314 338.041 1297.67 336.177 1292.79 C 332.498 1282.93 328.992 1273 325.662 1263.01 C 313.504 1226.84 304.039 1189.83 297.343 1152.26 C 254.68 910.603 332.669 663.333 506.259 489.881 C 644.24 351.99 831.588 274.933 1026.66 275.841 C 1223.15 276.236 1411.18 355.866 1548.19 496.711 C 1686.3 637.63 1763.01 827.493 1761.55 1024.8 C 1761.43 1098.8 1750.29 1172.38 1728.52 1243.11 C 1723.97 1258.4 1718.96 1273.55 1713.52 1288.55 C 1711.24 1294.73 1703.26 1314.4 1701.9 1319.59 C 1700.64 1324.44 1701.08 1347.79 1701.09 1354.39 L 1701.15 1423.12 L 1871.42 1423.12 L 1782.93 1591.58 L 1839 1696.77 C 1848.32 1714.25 1860.91 1739.45 1871.14 1755.88 L 1459.66 1756.11 L 1459.79 1632.32 C 1418.68 1658.51 1387.17 1678.23 1342.44 1699.25 C 1192.95 1769.66 1024.33 1788.56 862.96 1752.98 C 790.037 1736.67 719.882 1709.81 654.706 1673.26 C 631.674 1660.26 611.322 1646.86 589.268 1632.48 C 589.399 1673.55 589.726 1714.98 589.302 1756.01 L 177.32 1756.09 L 264.165 1591.55 C 257.328 1578.18 249.683 1562.25 242.389 1549.35 C 236.635 1537.42 229.129 1523.37 222.633 1511.83 C 219.225 1503.34 212.534 1491.89 208.314 1483.48 C 198.222 1463.36 186.72 1443.26 176.655 1423.17 L 346.083 1422.95 z"/>
<path transform="translate(0,0)" fill="rgb(245,235,216)" d="M 380.844 1315.97 L 1666.46 1315.96 C 1665.82 1374.13 1666.33 1433.24 1666.3 1491.48 L 1666.29 1539.19 C 1666.29 1546.4 1666.65 1560.29 1665.69 1566.77 L 380.339 1566.66 C 381.555 1483.67 379.037 1398.89 380.844 1315.97 z"/>
<path transform="translate(0,0)" fill="rgb(242,200,75)" d="M 981.472 772.876 L 983.854 773.111 C 983.342 776.482 967.326 789.371 963.202 793.309 C 931.333 823.822 901.81 856.695 874.884 891.648 C 783.571 1008.51 708.789 1146.71 649.468 1282.2 L 495.75 1282.09 C 494.762 1282.1 493.655 1281.71 492.625 1281.44 C 492.659 1280.64 492.652 1279.35 493.033 1278.67 C 553.017 1171.59 627.307 1071.81 711.421 982.458 C 758.02 932.956 808.399 886.346 862.834 845.557 C 899.453 818.119 939.454 791.348 981.472 772.876 z"/>
<path transform="translate(0,0)" fill="rgb(242,200,75)" d="M 1090.68 796.902 C 1085.71 792.39 1066.36 775.37 1063.12 770.896 C 1078.49 776.246 1112.98 794.94 1126.19 804.578 C 1136.44 808.246 1182.4 842.752 1191.56 849.879 C 1318.95 948.903 1428.9 1079.27 1516.14 1214.54 C 1529.7 1235.56 1545.02 1260.17 1556.9 1282.18 L 1398.05 1282.05 C 1351.69 1173.85 1295.87 1069.96 1231.23 971.591 C 1215.31 947.684 1196.6 920.236 1178.89 897.563 C 1159.88 872.925 1139.86 849.083 1118.88 826.098 C 1109.74 816.125 1099.53 806.78 1090.68 796.902 z"/>
<path transform="translate(0,0)" fill="rgb(242,200,75)" d="M 1017.53 794.809 C 1018.84 789.723 1021.36 775.168 1026.67 773.895 C 1030.97 777.379 1032.13 786.594 1033.41 792.267 C 1036.9 802.722 1040.54 821.125 1042.75 832.045 C 1048.24 859.261 1053.08 886.603 1057.27 914.05 C 1069.17 988.42 1078.97 1063.11 1086.64 1138.04 C 1090.2 1170.36 1093.23 1202.74 1095.72 1235.16 C 1096.91 1249.8 1098.84 1268.04 1099.27 1282.54 L 948.745 1282.27 C 951.197 1232.2 956.648 1180.43 961.704 1130.58 C 971.092 1038.01 984.224 945.23 1002.53 854.001 C 1004.43 844.514 1013.87 802.529 1017.53 794.809 z"/>
<path transform="translate(0,0)" fill="rgb(242,200,75)" d="M 1041.6 771.462 C 1066.55 776.53 1147.79 910.824 1164.1 939.36 C 1226.23 1048.09 1271.15 1163.28 1309.11 1282.18 C 1264.6 1283.14 1212.53 1282.83 1168.01 1282.14 C 1153.74 1186.21 1135.11 1090.99 1112.16 996.757 C 1096.63 933.613 1080.3 870.962 1057.67 809.863 C 1052.86 796.874 1046.99 784.248 1041.6 771.462 z"/>
<path transform="translate(0,0)" fill="rgb(242,200,75)" d="M 1005.65 771.701 L 1007.62 772.395 C 1007.67 775.829 1002.87 785.534 1001.19 789.344 C 983.576 829.317 970.398 871.353 957.973 913.227 C 931.697 1002.3 910.624 1092.82 894.859 1184.34 C 889.238 1216.46 883.058 1249.97 879.471 1282.33 C 833.299 1282.04 787.126 1281.99 740.954 1282.18 L 740.074 1281.82 L 739.45 1280.26 C 742.891 1265.51 753.516 1235.44 758.737 1220.32 C 805.376 1085.19 867.304 950.849 951.486 834.849 C 964.072 817.505 989.526 785.362 1005.65 771.701 z"/>
<path transform="translate(0,0)" fill="rgb(242,200,75)" d="M 1015.31 587.406 C 1022.09 586.922 1027.54 586.983 1034.36 587.403 C 1076.4 589.952 1115.72 609.037 1143.74 640.488 C 1171.31 671.573 1185.19 712.469 1182.21 753.919 C 1131.67 752.659 1085.13 751.856 1034.5 751.938 C 978.033 751.316 921.559 751.925 865.119 753.766 C 862.858 662.391 924.342 594.885 1015.31 587.406 z"/>
<path transform="translate(0,0)" fill="rgb(242,200,75)" d="M 1104.08 772.471 C 1116.13 774.52 1124.8 776.821 1136.41 780.219 C 1323.88 836.693 1504.25 964.393 1639.64 1104.7 C 1634.59 1151.88 1623.7 1198.25 1607.22 1242.74 C 1516.73 1105.24 1394.65 963.894 1261.72 866.244 C 1237.45 848.321 1212.35 831.548 1186.5 815.981 C 1176.71 810.176 1150.19 796.537 1143.28 791.494 C 1130.31 785.623 1116.91 778.789 1104.08 772.471 z"/>
<path transform="translate(0,0)" fill="rgb(242,200,75)" d="M 923.269 778.496 C 925.677 777.456 937.307 774.472 940.257 773.684 L 940.94 775.94 C 934.876 778.823 928.831 781.744 922.805 784.703 C 903.588 793.105 875.4 808.753 857.317 819.568 C 730.562 895.373 617.204 1008.68 525.917 1123.81 C 495.394 1161.75 467.004 1201.35 440.88 1242.44 C 425.05 1201.22 413.341 1147.84 408.603 1104.18 C 526.187 986.473 663.312 880.855 817.108 815.177 C 848.451 801.792 889.819 786.566 923.269 778.496 z"/>
<path transform="translate(0,0)" fill="rgb(245,235,216)" d="M 1701.37 1457.77 L 1815.36 1457.75 C 1795.21 1498.53 1768.17 1549.44 1746.22 1589.34 L 1792.48 1675.47 C 1800.01 1689.52 1809.92 1706.86 1816.67 1721.05 L 1501.42 1721.02 C 1513.45 1712.51 1572.81 1671.84 1584.06 1667.56 C 1588.46 1664.31 1593.71 1660.96 1598.38 1658 C 1623.79 1641.93 1649.11 1624.52 1675.03 1609.34 C 1682.91 1603.23 1692.86 1597.69 1701.18 1591.93 L 1701.37 1457.77 z"/>
<path transform="translate(0,0)" fill="rgb(245,235,216)" d="M 235.219 1457.76 L 346.227 1457.75 L 346.152 1593.38 C 413.268 1633.97 481.896 1678.47 548.105 1720.68 C 525.697 1721.38 501.776 1721 479.25 1721.01 L 234.778 1720.97 L 304.863 1589.58 L 235.219 1457.76 z"/>
<path transform="translate(0,0)" fill="rgb(242,200,75)" d="M 1512.12 633.263 L 1513.25 633.312 C 1526.2 642.995 1567.81 715.061 1576.15 732.332 C 1467.93 733.533 1358.22 732.235 1249.86 732.433 C 1229.38 732.237 1208.9 732.24 1188.42 732.443 C 1187.81 722.374 1186 713.462 1183.91 703.628 L 1512.12 633.263 z"/>
<path transform="translate(0,0)" fill="rgb(242,200,75)" d="M 534.245 632.969 L 863.632 703.561 C 861.297 713.726 860.204 722.178 858.828 732.46 L 803.25 732.226 L 471.706 732.364 C 488.392 698.583 511.519 662.992 534.245 632.969 z"/>
<path transform="translate(0,0)" fill="rgb(242,200,75)" d="M 1437.68 552.956 L 1438.76 552.813 C 1451.23 558.439 1498.19 613.39 1509.17 627.377 L 1235.73 686.214 L 1182.21 697.617 C 1179.48 687.389 1175.56 678.45 1171.21 668.844 L 1437.68 552.956 z"/>
<path transform="translate(0,0)" fill="rgb(242,200,75)" d="M 609.028 552.19 L 877.02 669.035 C 871.727 678.317 868.702 687.424 865.262 697.434 C 849.461 693.933 833.618 690.626 817.736 687.515 C 792.798 681.24 762.268 675.611 736.573 670.063 L 538.736 627.365 C 559.101 601.688 584.429 573.871 609.028 552.19 z"/>
<path transform="translate(0,0)" fill="rgb(242,200,75)" d="M 1183.82 780.464 C 1186.33 779.732 1186.82 779.48 1189.4 779.3 C 1319.64 802.097 1435.3 839.72 1551.64 903.41 C 1579.14 918.466 1618.23 940.475 1643.38 958.861 C 1645.95 988.253 1646.56 1017.78 1645.19 1047.26 C 1494.37 918.215 1376.48 839.352 1183.82 780.464 z"/>
<path transform="translate(0,0)" fill="rgb(242,200,75)" d="M 405.796 958.159 C 534.193 872.66 703.461 802.193 857.186 780.4 C 858.668 781.114 858.828 781.451 860.241 782.719 C 732.216 820.667 612.248 881.804 506.308 963.088 C 486.121 978.432 466.233 994.163 446.653 1010.27 C 432.315 1022.26 417.998 1035.29 403.319 1046.7 C 402.877 1014.87 402.882 989.85 405.796 958.159 z"/>
<path transform="translate(0,0)" fill="rgb(242,200,75)" d="M 1189 738.778 L 1448.38 738.638 C 1492.09 738.887 1535.8 738.886 1579.51 738.634 C 1589.57 758.67 1610.98 807.942 1615.36 829.729 C 1604.44 827.505 1580.85 819.491 1569.49 816.14 C 1544.18 808.795 1518.69 802.057 1493.06 795.931 C 1393.16 772.449 1291.24 758.568 1188.7 754.477 L 1189 738.778 z"/>
<path transform="translate(0,0)" fill="rgb(242,200,75)" d="M 468.588 738.952 C 524.213 737.837 582.541 738.74 638.311 738.779 L 858.837 738.713 L 858.954 754.531 C 824.726 755.564 787.827 758.805 753.757 762.183 C 669.089 771.007 585.271 786.644 503.117 808.942 C 479.883 815.246 455.418 823.15 432.315 830.24 C 441.918 798.88 454.049 768.35 468.588 738.952 z"/>
<path transform="translate(0,0)" fill="rgb(242,200,75)" d="M 1355.95 488.094 C 1375.46 497.453 1418.22 533.342 1434.36 547.379 C 1361.71 580.06 1285.01 612.731 1211.75 644.417 C 1197.69 650.644 1182.19 657.887 1167.89 663.12 C 1161.52 653.021 1156.57 645.94 1149.11 636.695 C 1160.9 627.266 1175.5 617.441 1187.92 608.65 C 1244.16 568.876 1299.59 527.641 1355.95 488.094 z"/>
<path transform="translate(0,0)" fill="rgb(242,200,75)" d="M 691.709 487.888 C 696.696 489.944 741.28 523.258 748.642 528.589 L 898.958 636.829 C 891.477 645.877 886.198 653.666 879.99 663.509 L 838.247 645.371 L 695.308 582.997 C 668.743 571.376 640.467 558.43 613.683 547.643 C 635.811 527.365 666.975 504.419 691.709 487.888 z"/>
<path transform="translate(0,0)" fill="rgb(242,200,75)" d="M 782.521 439.876 C 786.297 441.184 912.685 592.25 928.298 610.626 C 919.059 617.767 911.412 623.968 903.088 632.169 C 892.417 624.539 881.787 616.854 871.197 609.114 C 813.949 570 754.589 525.054 697.859 484.318 C 722.485 467.969 755.659 451.875 782.521 439.876 z"/>
<path transform="translate(0,0)" fill="rgb(242,200,75)" d="M 1265.82 439.717 C 1273.51 444.129 1286.64 449.243 1295.11 453.611 C 1313.62 463.154 1332.98 472.936 1350.47 484.181 C 1295.2 523.578 1234.77 565.993 1180.62 606.516 C 1168.51 615.042 1156.61 623.216 1145.14 632.603 C 1136.66 623.607 1129.8 618.017 1119.99 610.593 C 1168.09 553.199 1216.7 496.238 1265.82 439.717 z"/>
<path transform="translate(0,0)" fill="rgb(242,200,75)" d="M 878.063 408.19 C 879.939 407.762 879.328 407.909 881.371 408.258 C 892.578 430.616 906.448 463.474 916.69 487 C 930.722 519.231 950.905 559.298 962.927 591.648 C 952.232 596.497 943.736 601.211 933.502 606.892 C 926.275 599.709 913.713 583.852 906.699 575.5 C 880.237 545.331 854.476 512.652 828.033 482.31 C 815.544 467.979 802.579 450.734 789.535 437.25 C 813.588 425.991 852.473 414.662 878.063 408.19 z"/>
<path transform="translate(0,0)" fill="rgb(242,200,75)" d="M 1169.38 408.233 C 1197.75 414.018 1232.44 426.768 1259.24 437.086 L 1141.49 575.37 C 1132.49 585.871 1123.65 596.507 1114.97 607.274 C 1104.99 600.959 1095.78 596.505 1085.02 591.77 C 1111.41 531.055 1141.59 468.496 1169.38 408.233 z"/>
<path transform="translate(0,0)" fill="rgb(242,200,75)" d="M 967.726 393.417 C 971.994 393.072 971.801 392.437 975.178 393.962 C 977.191 400.922 982.288 442.458 983.502 451.294 L 1001.57 582.595 C 989.372 584.141 980.897 586.087 969.147 589.458 C 965.332 579.527 960.12 568.534 955.739 558.726 L 887.228 406.046 C 916.623 399.563 937.608 396.29 967.726 393.417 z"/>
<path transform="translate(0,0)" fill="rgb(242,200,75)" d="M 1007.21 390.547 C 1027.39 389.402 1050.44 390.598 1070.51 392.319 C 1068 413.766 1063.03 440.779 1059.6 462.637 L 1041.39 580.692 C 1040.53 581.081 1012.29 581.402 1007.53 582.007 C 1000.4 519.752 990.051 454.502 981.621 392.079 L 1007.21 390.547 z"/>
<path transform="translate(0,0)" fill="rgb(242,200,75)" d="M 1076.3 392.827 C 1100.35 393.847 1139.62 401.193 1163.09 406.4 C 1143.47 452.683 1118.05 504.179 1096.83 550.389 L 1078.74 589.527 C 1068.14 586.307 1058.17 584.215 1047.32 582.226 C 1055.64 520.067 1067.47 455.611 1076.3 392.827 z"/>
<path transform="translate(0,0)" fill="rgb(242,200,75)" d="M 943.929 1599.09 L 1104.4 1599.26 C 1105.97 1617.5 1108.11 1635.33 1109.41 1653.71 L 1100.36 1655.26 C 1043.41 1662.5 995.212 1661.73 938.727 1654.15 C 939.807 1636.21 942.089 1617.07 943.929 1599.09 z"/>
<path transform="translate(0,0)" fill="rgb(242,200,75)" d="M 423.695 860.638 C 532.162 822.544 644.653 797.06 758.947 784.689 L 760.793 786.737 C 673.01 807.858 593.072 831.805 510.963 870.025 C 476.618 886.012 444.543 902.905 411.202 920.823 C 414.588 898.891 417.941 881.846 423.695 860.638 z"/>
<path transform="translate(0,0)" fill="rgb(242,200,75)" d="M 1296.77 785.422 C 1358.62 792.724 1419.99 803.65 1480.56 818.146 C 1529.19 830.47 1577.35 844.583 1624.93 860.457 C 1629.9 880.449 1634.13 900.618 1637.6 920.922 C 1573.6 886.629 1519.99 859.836 1451.26 834.43 C 1394.51 813.454 1349.9 802.906 1293.12 787.823 C 1294.49 786.843 1295.31 786.27 1296.77 785.422 z"/>
<path transform="translate(0,0)" fill="rgb(242,200,75)" d="M 755.231 1599.33 C 780.673 1597.79 821.161 1599.13 847.967 1599.08 C 847.9 1599.44 847.833 1599.8 847.766 1600.16 C 847.116 1603.42 846.57 1606.71 846.129 1610.01 C 845.24 1616.92 844.184 1623.56 843.522 1630.52 C 843.491 1630.64 842.823 1633.9 841.98 1633.62 C 815.759 1624.8 778.686 1614 755.231 1599.33 z"/>
<path transform="translate(0,0)" fill="rgb(242,200,75)" d="M 1200.56 1599.38 C 1208.84 1599.23 1289.18 1598.45 1291.58 1600.04 C 1288.49 1601.92 1287.51 1602.25 1284.12 1603.66 C 1272.86 1611.76 1220.23 1629.56 1205.72 1634.11 C 1204.08 1622.52 1202.59 1610.9 1200.56 1599.38 z"/>
<path transform="translate(0,0)" fill="rgb(149,196,107)" d="M 1282.53 783.628 C 1285.95 784.015 1293.61 784.768 1296.77 785.422 C 1295.31 786.27 1294.49 786.843 1293.12 787.823 C 1289.11 787.085 1286.01 786.142 1281.79 785.458 L 1282.53 783.628 z"/>
<path transform="translate(0,0)" fill="rgb(149,196,107)" d="M 857.186 780.4 C 859.183 779.707 859.736 779.828 861.997 779.541 L 866.508 778.948 C 869.977 778.512 869.371 778.397 873.26 778.504 C 868.673 780.23 865.024 781.492 860.241 782.719 C 858.828 781.451 858.668 781.114 857.186 780.4 z"/>
<path transform="translate(0,0)" fill="rgb(125,119,88)" d="M 758.947 784.689 C 764.946 783.494 770.363 783.227 776.414 783.044 C 770.739 784.493 766.666 785.694 760.793 786.737 L 758.947 784.689 z"/>
<path transform="translate(0,0)" fill="rgb(125,119,88)" d="M 1174.51 776.991 C 1179.49 777.63 1184.46 778.4 1189.4 779.3 C 1186.82 779.48 1186.33 779.732 1183.82 780.464 C 1179.22 779.538 1178.94 779.325 1174.51 776.991 z"/>
<path transform="translate(0,0)" fill="rgb(125,119,88)" d="M 1281.79 785.458 C 1280.05 785.172 1276.23 784.511 1274.86 783.433 L 1275.08 783.191 C 1277.24 782.528 1280.37 783.027 1282.53 783.628 L 1281.79 785.458 z"/>
<path transform="translate(0,0)" fill="rgb(149,196,107)" d="M 940.257 773.684 C 941.278 773.461 944.566 772.386 945.382 773.438 C 944.939 774.639 942.011 775.524 940.94 775.94 L 940.257 773.684 z"/>
</svg>